<svg width="160" height="38" viewBox="0 0 160 38" fill="none" xmlns="http://www.w3.org/2000/svg">
<path d="M62.964 13.7596H62.9313L61.4055 18.1147H64.4898L62.964 13.7596ZM61.8049 11.6377H64.1951L68.3404 22.1948H65.996L65.0857 19.7782H60.8096L59.8862 22.1948H57.6925L61.8049 11.6377ZM71.5557 16.15H72.2564C73.2976 16.15 74.496 15.9994 74.496 14.683C74.496 13.4125 73.3172 13.3077 72.2564 13.3077H71.5557V16.15ZM69.4405 11.6377H71.7259C73.9917 11.6377 76.7028 11.5657 76.7028 14.4997C76.7028 15.7374 75.8712 16.7656 74.5287 16.949V16.9752C75.105 17.021 75.4389 17.5974 75.6485 18.0623L77.3446 22.1948H74.9871L73.7167 18.8941C73.4089 18.1082 73.1404 17.8069 72.2498 17.8069H71.5688V22.1948H69.4536V11.6377H69.4405ZM80.7367 13.3012H77.7113V11.6377H85.8773V13.3012H82.8519V22.2014H80.7367V13.3012ZM92.8908 13.5762C92.2228 13.2881 91.4828 13.1243 90.7429 13.1243C90.016 13.1243 89.0795 13.4453 89.0795 14.5913C89.0795 16.4185 93.7093 15.6523 93.7093 19.1888C93.7093 21.5006 91.8757 22.3847 89.7475 22.3847C88.6015 22.3847 88.0841 22.2341 87.0429 21.9787L87.2394 20.0729C87.9663 20.4659 88.7979 20.7213 89.6296 20.7213C90.4285 20.7213 91.5025 20.3152 91.5025 19.3591C91.5025 17.3485 86.8727 18.1802 86.8727 14.683C86.8727 12.3254 88.6997 11.4609 90.566 11.4609C91.4697 11.4609 92.321 11.5853 93.0872 11.8407L92.8908 13.5762ZM107.212 22.0507C106.44 22.2341 105.608 22.3782 104.809 22.3782C101.391 22.3782 99.0136 20.6689 99.0136 17.0996C99.0136 13.4845 101.22 11.4609 104.809 11.4609C105.503 11.4609 106.427 11.5984 107.199 11.8997L107.049 13.681C106.25 13.2291 105.523 13.1243 104.763 13.1243C102.583 13.1243 101.227 14.7878 101.227 16.949C101.227 19.0971 102.556 20.7147 104.809 20.7147C105.641 20.7147 106.623 20.5313 107.121 20.2759L107.212 22.0507ZM113.368 20.7147C115.529 20.7147 116.334 18.7958 116.334 16.8901C116.334 15.0301 115.47 13.1243 113.368 13.1243C111.266 13.1243 110.402 15.0301 110.402 16.8901C110.402 18.7958 111.207 20.7147 113.368 20.7147ZM113.368 11.4609C116.682 11.4609 118.541 13.7007 118.541 16.8901C118.541 20.0795 116.708 22.3782 113.368 22.3782C109.982 22.3782 108.195 20.1253 108.195 16.8901C108.195 13.6548 110.009 11.4609 113.368 11.4609ZM119.943 11.6377H122.058V17.7349C122.058 19.5359 122.634 20.7147 124.252 20.7147C125.869 20.7147 126.445 19.5359 126.445 17.7349V11.6377H128.561V18.3833C128.561 21.2125 126.956 22.3782 124.252 22.3782C121.547 22.3782 119.943 21.2125 119.943 18.3833V11.6377ZM130.152 11.6377H132.752L136.772 19.5359H136.805V11.6377H138.829V22.1948H136.242L132.208 14.2966H132.175V22.1948H130.152V11.6377ZM148.403 22.0507C147.63 22.2341 146.798 22.3782 145.999 22.3782C142.581 22.3782 140.204 20.6689 140.204 17.0996C140.204 13.4845 142.411 11.4609 145.999 11.4609C146.693 11.4609 147.617 11.5984 148.383 11.8997L148.232 13.681C147.427 13.2291 146.706 13.1243 145.947 13.1243C143.766 13.1243 142.404 14.7878 142.404 16.949C142.404 19.0971 143.733 20.7147 145.986 20.7147C146.818 20.7147 147.8 20.5313 148.298 20.2759L148.403 22.0507ZM150.007 11.6377H152.122V22.1948H150.007V11.6377ZM153.785 11.6377H155.901V20.5313H160V22.1948H153.785V11.6377ZM57.7187 26.7661H63.9529V28.4295H59.8404V31.0295H63.6058V32.693H59.8404V35.6597H63.9856V37.3232H57.7252V26.7661H57.7187ZM65.7209 26.7661H68.3207L72.3415 34.6577H72.3742V26.7661H74.4043V37.3232H71.8176L67.7772 29.4315H67.751V37.3232H65.7209V26.7661ZM84.6069 28.8094C83.7883 28.4295 82.734 28.2527 81.8827 28.2527C79.4205 28.2527 78.0584 29.9162 78.0584 32.0774C78.0584 34.2255 79.3877 35.8431 81.6404 35.8431C82.2167 35.8431 82.6685 35.7841 83.0287 35.6925V32.9418H80.7891V31.2784H85.0522V36.963C83.9324 37.2642 82.7668 37.5065 81.6339 37.5065C78.2155 37.5065 75.845 35.7972 75.845 32.228C75.845 28.6129 78.0518 26.5892 81.6339 26.5892C82.8584 26.5892 83.8276 26.753 84.7378 27.028L84.6069 28.8094ZM86.7548 26.7661H88.87V35.6597H92.9693V37.3232H86.7548V26.7661ZM99.1839 28.8814H99.1577L97.6253 33.2366H100.71L99.1839 28.8814ZM98.0182 26.7661H100.408L104.554 37.3232H102.209L101.299 34.9H97.0229L96.0995 37.3232H93.9058L98.0182 26.7661ZM105.582 26.7661H108.182L112.202 34.6577H112.229V26.7661H114.259V37.3232H111.672L107.631 29.4315H107.599V37.3232H105.575V26.7661H105.582ZM118.103 35.6597H119.281C121.049 35.6597 122.759 34.3433 122.759 32.0446C122.759 29.7459 121.049 28.4295 119.281 28.4295H118.103V35.6597ZM115.987 26.7661H118.875C122.11 26.7661 124.972 27.8532 124.972 32.0446C124.972 36.2295 122.11 37.3232 118.875 37.3232H115.987V26.7661ZM153.013 2.22014H152.554L153.759 5.65185L153.674 5.95311C153.543 6.3919 153.425 6.69315 153.059 6.69315C152.908 6.69315 152.823 6.66696 152.751 6.64076L152.711 7.00096C152.849 7.03371 153.013 7.05335 153.163 7.05335C153.635 7.05335 153.877 6.58837 154.034 6.12338L155.39 2.22669H154.951L153.975 5.05589H153.969L153.013 2.22014ZM151.651 3.91635C151.651 4.5778 151.448 5.33095 150.642 5.33095C149.896 5.33095 149.634 4.53196 149.634 3.91635C149.634 3.29418 149.876 2.50175 150.642 2.50175C151.441 2.4952 151.651 3.25489 151.651 3.91635ZM149.221 5.61256H149.64V5.07553H149.653C149.883 5.50777 150.223 5.69115 150.714 5.69115C151.644 5.69115 152.109 4.91835 152.109 3.91635C152.109 2.88814 151.71 2.14155 150.714 2.14155C150.046 2.14155 149.712 2.62618 149.653 2.78991H149.64V0.622162H149.221V5.61256ZM146.955 2.22014H146.536V2.60653H146.523C146.209 2.20049 145.914 2.14155 145.462 2.14155C144.467 2.14155 144.067 2.88814 144.067 3.91635C144.067 4.66949 144.415 5.61256 145.495 5.61256C145.927 5.61256 146.3 5.44228 146.53 4.9511H146.543C146.543 5.90727 146.451 6.69315 145.371 6.69315C145.004 6.69315 144.631 6.58837 144.375 6.45084L144.342 6.86998C144.513 6.92237 144.919 7.0468 145.364 7.0468C146.53 7.0468 146.955 6.27401 146.955 5.33095V2.22014ZM144.526 3.91635C144.526 3.25489 144.735 2.50175 145.534 2.50175C146.3 2.50175 146.536 3.09771 146.536 3.91635C146.536 4.53196 146.261 5.25236 145.508 5.25236C144.788 5.25236 144.526 4.5778 144.526 3.91635ZM140.485 5.61256H140.905V3.73297C140.905 3.16975 141.14 2.4952 141.906 2.4952C142.483 2.4952 142.712 2.90779 142.712 3.54305V5.60601H143.131V3.44481C143.131 2.69822 142.81 2.14155 141.972 2.14155C141.265 2.14155 141.016 2.52139 140.872 2.82265H140.859V2.22014H140.453C140.479 2.4952 140.479 2.75716 140.479 3.01912V5.61256H140.485ZM139.366 0.753144H138.947V1.30981H139.366V0.753144ZM138.947 5.61256H139.366V2.22014H138.947V5.61256ZM135.417 3.91635C135.417 3.25489 135.62 2.50175 136.419 2.50175C137.165 2.50175 137.427 3.30073 137.427 3.91635C137.427 4.53196 137.165 5.33095 136.419 5.33095C135.626 5.33095 135.417 4.57125 135.417 3.91635ZM137.846 0.622162H137.427V2.78991H137.414C137.355 2.62618 137.021 2.14155 136.353 2.14155C135.358 2.14155 134.958 2.88814 134.958 3.91635C134.958 4.91835 135.423 5.69115 136.353 5.69115C136.838 5.69115 137.185 5.50777 137.414 5.07553H137.427V5.61256H137.846V0.622162ZM131.37 5.61256H131.789V3.73297C131.789 3.16975 132.031 2.4952 132.797 2.4952C133.374 2.4952 133.603 2.90779 133.603 3.54305V5.60601H134.022V3.44481C134.022 2.69822 133.701 2.14155 132.863 2.14155C132.156 2.14155 131.907 2.52139 131.763 2.82265H131.75V2.22014H131.344C131.37 2.4952 131.37 2.75716 131.37 3.01912V5.61256ZM130.244 2.22014H129.824V4.09317C129.824 4.65639 129.589 5.33095 128.822 5.33095C128.246 5.33095 128.017 4.91835 128.017 4.28309V2.22014H127.598V4.38788C127.598 5.13447 127.919 5.69115 128.757 5.69115C129.464 5.69115 129.713 5.3113 129.857 5.00349H129.87V5.60601H130.276C130.25 5.33095 130.25 5.06898 130.25 4.80702V2.22014H130.244ZM125.607 5.61256H126.026V2.57379H126.792V2.22014H126.026V1.92543C126.026 1.51939 125.967 0.897223 126.537 0.897223C126.655 0.897223 126.786 0.92342 126.871 0.969263L126.897 0.602515C126.819 0.556671 126.635 0.537024 126.504 0.537024C125.633 0.537024 125.607 1.25742 125.607 1.96472V2.21359H124.92V2.57379H125.607V5.61256ZM123.315 2.27253C123.197 2.23323 122.903 2.14155 122.497 2.14155C121.495 2.14155 120.82 2.87504 120.82 3.91635C120.82 4.85941 121.351 5.69115 122.444 5.69115C122.765 5.69115 123.027 5.6715 123.315 5.57326L123.276 5.18032C123.021 5.27201 122.778 5.33095 122.51 5.33095C121.744 5.33095 121.279 4.68914 121.279 3.91635C121.279 3.09116 121.737 2.50175 122.556 2.50175C122.785 2.50175 123.053 2.57379 123.282 2.67202L123.315 2.27253ZM119.91 0.753144H119.491V1.30981H119.91V0.753144ZM119.491 5.61256H119.91V2.22014H119.491V5.61256ZM117.952 5.61256H118.371V0.622162H117.952V5.61256ZM116.531 3.91635C116.531 4.5778 116.328 5.33095 115.529 5.33095C114.782 5.33095 114.527 4.53196 114.527 3.91635C114.527 3.29418 114.769 2.50175 115.529 2.50175C116.328 2.4952 116.531 3.25489 116.531 3.91635ZM114.108 5.61256H114.527V5.07553H114.54C114.769 5.50777 115.11 5.69115 115.601 5.69115C116.531 5.69115 116.996 4.91835 116.996 3.91635C116.996 2.88814 116.596 2.14155 115.601 2.14155C114.933 2.14155 114.606 2.62618 114.54 2.78991H114.527V0.622162H114.108V5.61256ZM113.001 2.22014H112.582V4.09317C112.582 4.65639 112.346 5.33095 111.58 5.33095C111.004 5.33095 110.775 4.91835 110.775 4.28309V2.22014H110.356V4.38788C110.356 5.13447 110.677 5.69115 111.515 5.69115C112.222 5.69115 112.471 5.3113 112.615 5.00349H112.628V5.60601H113.034C113.008 5.33095 113.008 5.06898 113.008 4.80702V2.22014H113.001ZM108.954 3.91635C108.954 4.5778 108.745 5.33095 107.952 5.33095C107.206 5.33095 106.944 4.53196 106.944 3.91635C106.944 3.29418 107.206 2.50175 107.952 2.50175C108.745 2.4952 108.954 3.25489 108.954 3.91635ZM106.525 7.00751H106.944V5.02969H106.957C107.167 5.46848 107.481 5.6846 108.018 5.6846C108.948 5.6846 109.413 4.91181 109.413 3.9098C109.413 2.88159 109.013 2.135 108.018 2.135C107.298 2.135 107.042 2.64583 106.931 2.8292H106.918L106.944 2.21359H106.525V7.00751ZM104.259 2.22014H103.84V2.60653H103.827C103.512 2.20049 103.224 2.14155 102.766 2.14155C101.771 2.14155 101.371 2.88814 101.371 3.91635C101.371 4.66949 101.718 5.61256 102.799 5.61256C103.231 5.61256 103.604 5.44228 103.833 4.9511H103.846C103.846 5.90727 103.755 6.69315 102.674 6.69315C102.308 6.69315 101.934 6.58837 101.679 6.45084L101.646 6.86998C101.816 6.92237 102.222 7.0468 102.668 7.0468C103.833 7.0468 104.259 6.27401 104.259 5.33095V2.22014ZM101.829 3.91635C101.829 3.25489 102.039 2.50175 102.831 2.50175C103.598 2.50175 103.84 3.09771 103.84 3.91635C103.84 4.53196 103.565 5.25236 102.805 5.25236C102.098 5.25236 101.829 4.5778 101.829 3.91635ZM97.7891 5.61256H98.2082V3.73297C98.2082 3.16975 98.4505 2.4952 99.2166 2.4952C99.7929 2.4952 100.022 2.90779 100.022 3.54305V5.60601H100.441V3.44481C100.441 2.69822 100.12 2.14155 99.2821 2.14155C98.5749 2.14155 98.326 2.52139 98.182 2.82265H98.1689V2.22014H97.7629C97.789 2.4952 97.7891 2.75716 97.7891 3.01912V5.61256ZM96.6693 0.753144H96.2502V1.30981H96.6693V0.753144ZM96.2502 5.61256H96.6693V2.22014H96.2502V5.61256ZM93.2837 5.53397C93.5849 5.65185 93.9058 5.69115 94.2332 5.69115C94.744 5.69115 95.4185 5.44228 95.4185 4.72843C95.4185 3.61509 93.7486 3.69368 93.7486 3.06497C93.7486 2.63273 94.0499 2.50175 94.482 2.50175C94.7178 2.50175 95.0125 2.56069 95.2351 2.65892L95.2744 2.29218C94.9732 2.18084 94.6196 2.14155 94.4362 2.14155C93.8796 2.14155 93.3295 2.39041 93.3295 3.06497C93.3295 4.04733 94.9601 3.9229 94.9601 4.72843C94.9601 5.11483 94.6065 5.33095 94.207 5.33095C93.8796 5.33095 93.5718 5.24581 93.323 5.11483L93.2837 5.53397ZM92.4586 2.22014H92.0395V4.09317C92.0395 4.65639 91.7972 5.33095 91.0375 5.33095C90.4613 5.33095 90.2321 4.91835 90.2321 4.28309V2.22014H89.813V4.38788C89.813 5.13447 90.1338 5.69115 90.972 5.69115C91.6793 5.69115 91.9281 5.3113 92.0722 5.00349H92.0853V5.60601H92.4913C92.4651 5.33095 92.4651 5.06898 92.4651 4.80702V2.22014H92.4586ZM85.0784 3.91635C85.0784 3.25489 85.2814 2.50175 86.0803 2.50175C86.8268 2.50175 87.0822 3.30073 87.0822 3.91635C87.0822 4.53196 86.8203 5.33095 86.0803 5.33095C85.2814 5.33095 85.0784 4.57125 85.0784 3.91635ZM87.5079 0.622162H87.0888V2.78991H87.0757C87.0167 2.62618 86.6828 2.14155 86.0148 2.14155C85.0194 2.14155 84.62 2.88814 84.62 3.91635C84.62 4.91835 85.0849 5.69115 86.0148 5.69115C86.4994 5.69115 86.8465 5.50777 87.0757 5.07553H87.0888V5.61256H87.5079V0.622162ZM81.5684 3.67403C81.5684 3.11736 81.9482 2.4952 82.5637 2.4952C83.1859 2.4952 83.4281 3.07807 83.4281 3.67403H81.5684ZM83.6377 5.07553C83.4412 5.19997 82.9894 5.33095 82.6882 5.33095C81.9547 5.33095 81.5684 4.75463 81.5684 4.03423H83.8866V3.81811C83.8866 2.90779 83.4936 2.135 82.5376 2.135C81.6797 2.135 81.11 2.87504 81.11 3.9098C81.11 4.9249 81.5291 5.6846 82.6554 5.6846C82.9698 5.6846 83.3496 5.61911 83.6377 5.50122V5.07553ZM80.5599 2.22014H79.7872V1.25087L79.3681 1.39495V2.21359H78.7001V2.57379H79.3681V4.55816C79.3681 5.17377 79.3943 5.69115 80.1408 5.69115C80.3503 5.69115 80.5534 5.63875 80.6516 5.59946L80.6254 5.25236C80.5075 5.2982 80.3962 5.33095 80.239 5.33095C79.8985 5.33095 79.7872 5.07553 79.7872 4.77428V2.57379H80.5599V2.22014ZM76.598 5.61256H77.0172V3.93599C77.0172 3.32693 77.194 2.58034 77.8619 2.58034C77.9667 2.58034 78.078 2.59343 78.1697 2.61963V2.18084C78.0977 2.16119 77.9798 2.14155 77.875 2.14155C77.4428 2.14155 77.1547 2.4952 77.0041 2.87504H76.991V2.22014H76.5718C76.598 2.46245 76.598 2.60653 76.598 2.97983V5.61256ZM72.9833 3.91635C72.9833 3.13046 73.3762 2.50175 74.1096 2.50175C74.843 2.50175 75.2359 3.13701 75.2359 3.91635C75.2359 4.70224 74.843 5.33095 74.1096 5.33095C73.3762 5.33095 72.9833 4.70224 72.9833 3.91635ZM72.5249 3.91635C72.5249 4.83977 73.0095 5.69115 74.1096 5.69115C75.2098 5.69115 75.6943 4.83977 75.6943 3.91635C75.6943 2.99293 75.2098 2.14155 74.1096 2.14155C73.0095 2.14155 72.5249 2.98638 72.5249 3.91635ZM71.3265 3.91635C71.3265 4.5778 71.1169 5.33095 70.3246 5.33095C69.578 5.33095 69.3161 4.53196 69.3161 3.91635C69.3161 3.29418 69.578 2.50175 70.3246 2.50175C71.1235 2.4952 71.3265 3.25489 71.3265 3.91635ZM68.897 7.00751H69.3161V5.02969H69.3292C69.5322 5.46848 69.8531 5.6846 70.39 5.6846C71.3199 5.6846 71.7849 4.91181 71.7849 3.9098C71.7849 2.88159 71.3854 2.135 70.39 2.135C69.6697 2.135 69.4143 2.64583 69.303 2.8292H69.2899L69.3161 2.21359H68.897V7.00751ZM67.5087 3.91635C67.5087 4.5778 67.2991 5.33095 66.5068 5.33095C65.7602 5.33095 65.4983 4.53196 65.4983 3.91635C65.4983 3.29418 65.7602 2.50175 66.5068 2.50175C67.3057 2.4952 67.5087 3.25489 67.5087 3.91635ZM65.0792 7.00751H65.4983V5.02969H65.5114C65.7209 5.46848 66.0353 5.6846 66.5723 5.6846C67.5022 5.6846 67.9671 4.91181 67.9671 3.9098C67.9671 2.88159 67.5676 2.135 66.5723 2.135C65.8519 2.135 65.5965 2.64583 65.4852 2.8292H65.4721L65.4983 2.21359H65.0792V7.00751ZM63.979 2.22014H63.5599V4.09317C63.5599 4.65639 63.3242 5.33095 62.558 5.33095C61.9817 5.33095 61.7525 4.91835 61.7525 4.28309V2.22014H61.3334V4.38788C61.3334 5.13447 61.6543 5.69115 62.4925 5.69115C63.1998 5.69115 63.4486 5.3113 63.5927 5.00349H63.6058V5.60601H64.0118C63.979 5.3375 63.979 5.06898 63.979 4.81357V2.22014ZM57.83 5.48812C58.0788 5.59291 58.4259 5.6846 58.8778 5.6846C59.5981 5.6846 60.4035 5.3113 60.4035 4.37478C60.4035 3.01912 58.2753 3.01257 58.2753 2.08261C58.2753 1.48664 58.7992 1.28362 59.2838 1.28362C59.5981 1.28362 59.9255 1.34256 60.1285 1.45389L60.2005 1.03475C59.8797 0.91687 59.513 0.884125 59.2903 0.884125C58.4717 0.884125 57.8234 1.34911 57.8234 2.0957C57.8234 3.31383 59.9517 3.42517 59.9517 4.33549C59.9517 4.99694 59.4802 5.2851 58.9039 5.2851C58.4717 5.2851 58.1509 5.18687 57.8824 5.01004L57.83 5.48812ZM4.71493 18.4618L4.67564 17.3289L0 18.9989L0.0458396 20.2301L4.82626 21.6381L4.78697 20.5641L3.71956 20.2694L3.66717 18.7958L4.71493 18.4618ZM2.88135 19.0316L2.91409 20.1122L0.92989 19.6079V19.5948L2.88135 19.0316ZM4.93104 16.019L5.27156 14.9581L3.45107 14.3687C3.57549 13.9823 3.62133 13.8382 4.29583 13.8644L5.61208 13.9037L5.97225 12.7969L4.35477 12.7838C3.75885 12.7772 3.54275 12.8493 3.39213 13.1636H3.37904C3.49036 12.2337 2.75038 11.9717 2.56702 11.9128C1.73536 11.6443 1.20493 12.1682 0.962632 12.9148L0.419105 14.5586L4.93104 16.019ZM1.51926 13.7858L1.62403 13.4583C1.80739 12.8951 2.20685 12.9606 2.39676 13.0196C2.72418 13.1243 2.92719 13.4256 2.79622 13.8316L2.68489 14.1591L1.51926 13.7858ZM3.71956 9.12286L3.12364 9.96769L2.42295 9.47651L4.24344 6.87653L4.94413 7.36771L4.35477 8.20599L7.5308 10.4327L6.88904 11.343L3.71956 9.12286ZM8.34281 4.36168C8.05468 4.42717 7.70106 4.58435 7.47186 4.77428C7.19682 5.00349 7.09205 5.30475 7.3147 5.57326C7.87132 6.23472 9.04351 4.72843 10.1175 6.0186C10.6937 6.70625 10.4973 7.57728 9.77694 8.18634C9.33819 8.55309 8.8667 8.76921 8.67024 8.85435L8.12016 8.10775C8.46069 7.99642 8.78811 7.93093 9.10244 7.66242C9.37093 7.43975 9.52155 7.07955 9.27271 6.78484C8.68334 6.08409 7.5439 7.62967 6.45684 6.33296C6.37171 6.22162 5.64482 5.26546 6.8563 4.2438C7.18373 3.96219 7.44567 3.85086 7.81239 3.65438L8.34281 4.36168ZM16.535 1.17883C16.3451 1.12644 16.0308 1.01511 15.5265 1.13299C14.8062 1.30327 14.4788 1.99747 14.6949 2.92744C14.9044 3.82466 15.5658 4.31584 16.2534 4.15211C16.7839 4.03423 17.0458 3.75917 17.1375 3.68713L17.3994 4.64329C17.2292 4.74153 16.869 4.938 16.2862 5.07553C15.0223 5.36369 13.9222 4.6302 13.5816 3.1632C13.1887 1.47354 14.171 0.537024 15.1074 0.320905C15.795 0.157178 16.1814 0.229218 16.3713 0.261963L16.535 1.17883ZM18.8728 2.25288C18.7026 3.63474 19.2134 4.76118 20.5689 4.93145C21.9179 5.10173 22.6972 4.13247 22.8674 2.75061C23.0377 1.36876 22.5204 0.242316 21.1648 0.0785889C19.8093 -0.104785 19.0431 0.871027 18.8728 2.25288ZM19.9992 2.39041C20.1105 1.49319 20.4248 0.77934 21.06 0.857929C21.7018 0.936518 21.8393 1.69621 21.728 2.59998C21.6167 3.50375 21.2958 4.21106 20.6606 4.12592C20.0254 4.05388 19.8944 3.29418 19.9992 2.39041ZM25.8274 1.21158L26.8096 1.71586L25.3624 4.55816C25.1463 4.98385 25.1725 5.3244 25.572 5.52742C25.9649 5.73044 26.253 5.55362 26.4691 5.12793L27.9294 2.28563L28.9183 2.78991L27.5496 5.47503C27.0192 6.52288 26.1417 6.77174 25.1856 6.28711C24.2295 5.80903 23.9152 4.9511 24.4456 3.90325L25.8274 1.21158ZM31.2954 4.48612L32.1925 5.42918L30.7911 8.69717L30.7977 8.71027L33.1486 6.43119L33.8362 7.13849L30.431 10.4261L29.5142 9.48306L31.0334 6.12993L31.0269 6.11684L28.5581 8.49415L27.8836 7.7934L31.2954 4.48612ZM35.7811 12.751C35.7942 12.5546 35.827 12.2206 35.6043 11.7621C35.2769 11.0941 34.5238 10.9304 33.6659 11.3495C32.8474 11.7556 32.52 12.5153 32.8277 13.144C33.0635 13.6352 33.3844 13.8382 33.4695 13.9102L32.6051 14.3818C32.4676 14.2377 32.1925 13.9299 31.9306 13.3929C31.3674 12.2271 31.8389 10.9893 33.1879 10.3279C34.7464 9.5682 35.8793 10.3148 36.305 11.1793C36.6193 11.8145 36.6324 12.2009 36.6455 12.4039L35.7811 12.751ZM37.4837 15.1611L37.6736 16.2483L33.0176 17.0669L32.8212 15.9732L37.4837 15.1611ZM37.8766 19.1037L37.7981 20.2235L33.9279 19.955L33.8231 21.5137L32.9718 21.4482L33.1552 18.7827L37.8766 19.1037ZM7.86477 26.7726L9.15483 28.3116L8.8536 28.5736L7.83203 27.3489L6.54197 28.4361L7.51115 29.6018L7.20992 29.8638L6.23419 28.698L4.80007 29.9031L5.86747 31.1605L5.56624 31.4225L4.23034 29.831L7.86477 26.7726ZM10.2484 29.4119L10.6937 29.7262L9.98649 34.3237L9.99959 34.3302L12.3505 30.833L12.6779 31.0492L10.0323 34.9852L9.58703 34.6708L10.2746 30.093L10.2615 30.0864L7.93026 33.5575L7.60283 33.3413L10.2484 29.4119ZM15.0354 34.1927L16.2534 34.5333L15.6117 36.7796C15.2319 36.8713 14.8651 36.832 14.4919 36.7272C12.894 36.2688 12.9333 34.6512 13.1822 33.7867C13.5161 32.6275 14.5312 31.7172 15.8081 32.0774C16.1748 32.1887 16.5874 32.4638 16.7053 32.5816L16.5547 33.0139C16.4171 32.8174 16.0242 32.562 15.6772 32.4572C15.0289 32.2673 14.0138 32.5162 13.6013 33.9504C13.3655 34.7821 13.4245 36.0134 14.6228 36.3539C14.8586 36.4129 15.0485 36.4391 15.2908 36.3932L15.7426 34.7952L14.9306 34.5595L15.0354 34.1927ZM18.3621 32.49H18.7812V36.832H20.3201V37.2184H18.3621V32.49ZM22.2519 37.0088L22.6513 36.8909L22.7037 35.5091L24.5177 34.9983L25.2707 36.1378L25.7029 36.0199L22.8871 31.8874L22.4614 32.0119L22.2519 37.0088ZM22.7823 32.3917H22.7954L24.2819 34.6446L22.7103 35.1096L22.7823 32.3917ZM25.1463 31.0164L25.6047 30.7348L29.5535 33.1776L29.5666 33.1711L27.2746 29.6477L27.6086 29.425L30.1821 33.4068L29.7303 33.6884L25.7881 31.2718L25.775 31.2784L28.0473 34.7821L27.7199 35.0048L25.1463 31.0164ZM32.5396 31.1801L32.9914 30.6169C33.9279 29.4053 33.5088 28.22 32.4217 27.3751C31.2168 26.4321 30.1559 26.5434 29.1868 27.7877L28.8004 28.2658L32.5396 31.1801ZM29.3767 28.1741L29.5928 27.9056C30.5619 26.6416 31.6097 27.3031 32.1991 27.7746C33.129 28.5016 33.3909 29.4381 32.7491 30.2698L32.4807 30.6235L29.3767 28.1741ZM48.0268 37.3232H47.5357V0H48.0268V37.3232Z" fill="white"/>
</svg>
