<svg width="120" height="49" viewBox="0 0 120 49" fill="none" xmlns="http://www.w3.org/2000/svg">
<g clip-path="url(#clip0)">
<path d="M0.00512695 43.0364H4.26671V44.1941H1.2256V45.3518H3.66151V46.4272H1.2256V47.6673H4.27175V48.825H0.00512695V43.0364ZM6.12768 43.0364H8.68462L10.1875 48.8353H8.9267L8.60393 47.5489H6.20837L5.8856 48.8353H4.62478L6.12768 43.0364ZM8.32151 46.3912L7.75162 44.1941H7.06069L6.4908 46.3912H8.32151ZM11.6854 47.0087C11.7358 47.1733 11.8165 47.3225 11.9224 47.446C12.109 47.6673 12.4318 47.8782 12.9865 47.8782C13.7582 47.8782 14.0406 47.5901 14.0406 47.2145C14.0406 46.6999 13.2034 46.5353 12.3612 46.314C11.5089 46.1082 10.6717 45.6863 10.6717 44.6469C10.6717 43.695 11.4837 42.8666 12.8655 42.8666C13.9196 42.8666 14.5046 43.3245 14.8324 43.7619C15.019 44.0294 15.1501 44.3227 15.2207 44.6469H13.9599C13.9296 44.5234 13.8641 44.4154 13.7733 44.3176C13.617 44.1529 13.3497 43.9883 12.8655 43.9883C12.2149 43.9883 11.9325 44.2764 11.9325 44.6109C11.9325 45.0019 12.4015 45.1975 13.0017 45.3415C13.975 45.5834 15.3014 45.8715 15.3014 47.1785C15.3014 48.1458 14.5147 48.9999 12.9865 48.9999C11.872 48.9999 11.2063 48.5111 10.8684 48.0069C10.6566 47.7187 10.5103 47.3843 10.4296 47.0138H11.6854V47.0087ZM15.5334 43.0364H20.4052V44.1941H18.5796V48.8353H17.3641V44.1941H15.5334V43.0364ZM22.8664 43.0364H24.0868V47.6724H26.8859V48.8301H22.8664V43.0364ZM30.3657 42.8717C32.151 42.8717 33.4926 44.2404 33.4926 45.9384C33.4926 47.6364 32.151 49.0051 30.3657 49.0051C28.5804 49.0051 27.2389 47.6364 27.2389 45.9384C27.2389 44.2404 28.5804 42.8717 30.3657 42.8717ZM30.3657 47.8371C31.4198 47.8371 32.1914 47.0498 32.1914 45.9333C32.1914 44.8167 31.4198 44.0294 30.3657 44.0294C29.3117 44.0294 28.5401 44.8167 28.5401 45.9333C28.5401 47.0498 29.3117 47.8371 30.3657 47.8371ZM34.2944 43.0364H35.878L38.1122 47.1373H38.1929L38.1122 46.4324V43.0364H39.3327V48.8353H37.7491L35.5149 44.7344H35.4342L35.5149 45.4393V48.8353H34.2944V43.0364ZM40.1749 43.0364H42.2477C44.0734 43.0364 45.3342 44.3227 45.3342 45.9333C45.3342 47.5438 44.0734 48.8301 42.2477 48.8301H40.1749V43.0364ZM42.2477 47.6724C43.3824 47.6724 44.0734 46.9675 44.0734 45.9333C44.0734 44.899 43.3824 44.1941 42.2477 44.1941H41.3954V47.6724H42.2477ZM49.0158 42.8717C50.8011 42.8717 52.1426 44.2404 52.1426 45.9384C52.1426 47.6364 50.8011 49.0051 49.0158 49.0051C47.2305 49.0051 45.889 47.6364 45.889 45.9384C45.889 44.2404 47.2305 42.8717 49.0158 42.8717ZM49.0158 47.8371C50.0698 47.8371 50.8415 47.0498 50.8415 45.9333C50.8415 44.8167 50.0698 44.0294 49.0158 44.0294C47.9618 44.0294 47.1901 44.8167 47.1901 45.9333C47.1901 47.0498 47.9618 47.8371 49.0158 47.8371ZM52.9496 43.0364H54.5332L56.7673 47.1373H56.848L56.7673 46.4324V43.0364H57.9878V48.8353H56.4042L54.17 44.7344H54.0893L54.17 45.4393V48.8353H52.9496V43.0364ZM61.2962 43.0364H63.9338C65.3157 43.0364 66.2084 43.9471 66.2084 45.0637C66.2084 46.1802 65.3157 47.091 63.9338 47.091H62.5116V48.8301H61.2912V43.0364H61.2962ZM63.8935 45.9333C64.5844 45.9333 64.9475 45.5628 64.9475 45.0637C64.9475 44.5646 64.5844 44.1941 63.8935 44.1941H62.5116V45.9333H63.8935ZM66.9144 43.0364H69.5924C70.9793 43.0364 71.8266 43.906 71.8266 44.9814C71.8266 45.8818 71.2567 46.4787 70.5254 46.7617L71.8266 48.8301H70.4447L69.2696 46.9263H68.1349V48.8301H66.9144V43.0364ZM69.5521 45.7686C70.243 45.7686 70.5658 45.4444 70.5658 44.9814C70.5658 44.5183 70.243 44.1941 69.5521 44.1941H68.1299V45.7686H69.5521ZM72.6285 43.0364H73.8489V48.8353H72.6285V43.0364ZM74.8929 43.0364H76.4765L78.7107 47.1373H78.7914L78.7107 46.4324V43.0364H79.9312V48.8353H78.3476L76.1134 44.7344H76.0327L76.1134 45.4393V48.8353H74.8929V43.0364ZM80.5313 43.0364H85.4031V44.1941H83.5775V48.8353H82.362V44.1941H80.5364V43.0364H80.5313ZM86.0033 43.0364H87.8289L89.2108 46.35H89.4125L90.7944 43.0364H92.6201V48.8353H91.4046V45.1512L91.4853 44.4051H91.4046L90.1035 47.5129H88.5199L87.2187 44.4051H87.138L87.2187 45.1512V48.8353H85.9982V43.0364H86.0033ZM94.6424 43.0364H97.1994L98.7023 48.8353H97.4415L97.1187 47.5489H94.7231L94.4003 48.8353H93.1395L94.6424 43.0364ZM96.8363 46.3912L96.2664 44.1941H95.5754L95.0055 46.3912H96.8363ZM99.2621 43.0364H100.483V45.3158H101.295L102.838 43.0364H104.22L102.354 45.8098L104.341 48.8353H102.918L101.335 46.4735H100.483V48.8353H99.2621V43.0364ZM104.815 43.0364H109.076V44.1941H106.03V45.3518H108.466V46.4272H106.03V47.6673H109.076V48.825H104.815V43.0364ZM109.924 43.0364H112.602C113.988 43.0364 114.836 43.906 114.836 44.9814C114.836 45.8818 114.266 46.4787 113.535 46.7617L114.836 48.8301H113.454L112.279 46.9263H111.144V48.8301H109.924V43.0364ZM112.561 45.7686C113.252 45.7686 113.575 45.4444 113.575 44.9814C113.575 44.5183 113.252 44.1941 112.561 44.1941H111.139V45.7686H112.561ZM116.384 47.0087C116.434 47.1733 116.515 47.3225 116.621 47.446C116.808 47.6673 117.13 47.8782 117.685 47.8782C118.457 47.8782 118.739 47.5901 118.739 47.2145C118.739 46.6999 117.902 46.5353 117.06 46.314C116.208 46.1082 115.37 45.6863 115.37 44.6469C115.37 43.695 116.182 42.8666 117.564 42.8666C118.618 42.8666 119.203 43.3245 119.531 43.7619C119.718 44.0294 119.849 44.3227 119.919 44.6469H118.659C118.628 44.5234 118.563 44.4154 118.472 44.3176C118.316 44.1529 118.048 43.9883 117.564 43.9883C116.914 43.9883 116.631 44.2764 116.631 44.6109C116.631 45.0019 117.1 45.1975 117.7 45.3415C118.674 45.5834 120 45.8715 120 47.1785C120 48.1458 119.213 48.9999 117.685 48.9999C116.571 48.9999 115.905 48.5111 115.567 48.0069C115.355 47.7187 115.209 47.3843 115.128 47.0138H116.384V47.0087Z" fill="#141414"/>
<path d="M104.421 12.9099V7.09556C104.421 3.17988 101.299 0 97.4666 0C93.6286 0 90.5119 3.18503 90.5119 7.09556V12.9099H81.0456V39.7073H119.965V12.9099H104.421ZM91.8433 7.09556C91.8433 3.93111 94.365 1.3584 97.4666 1.3584C100.568 1.3584 103.09 3.93111 103.09 7.09556V28.4388C101.824 26.6688 99.7714 25.5162 97.4666 25.5162C95.1568 25.5162 93.1092 26.6688 91.8433 28.4388V7.09556ZM82.3771 38.3489V14.2683H90.5169V32.6118H91.8484C91.8484 29.4473 94.37 26.8746 97.4716 26.8746C100.573 26.8746 103.095 29.4473 103.095 32.6118C103.095 35.7762 100.573 38.3489 97.4716 38.3489H82.3771ZM101.557 38.3489C103.292 37.0574 104.426 34.9684 104.426 32.6118V14.2683H118.633V38.3489H101.557ZM67.0606 12.9099V7.09556C67.0606 3.17988 63.9388 0 60.1059 0H59.4402V12.9099H40.4976V39.7073H79.4167V12.9099H67.0606ZM60.7716 1.39956C63.5606 1.73401 65.7292 4.16266 65.7292 7.09556V28.4388C64.5843 26.8386 62.8041 25.7426 60.7716 25.5471V1.39956ZM41.829 38.3489V14.2683H59.4402V26.8746H60.1059C63.2075 26.8746 65.7292 29.4473 65.7292 32.6118C65.7292 35.7762 63.2075 38.3489 60.1059 38.3489H41.829ZM78.0852 38.3489H64.191C65.9259 37.0574 67.0606 34.9684 67.0606 32.6118V14.2683H78.0852V38.3489ZM35.3434 12.9099V5.58794H34.0119V5.6394C34.0119 8.9119 31.4197 12.9099 28.3887 12.9099H0V39.7073H38.9191V12.9099H35.3434ZM1.33143 38.3489V14.2683H28.3887C29.6697 14.2683 30.8649 13.7486 31.8938 12.9099C32.7259 12.2307 33.4471 11.3405 34.0119 10.3526V32.6118C34.0119 35.7762 31.4903 38.3489 28.3887 38.3489H1.33143ZM37.5876 38.3489H32.4737C34.2086 37.0574 35.3434 34.9684 35.3434 32.6118V14.2683H37.5876V38.3489Z" fill="#141414"/>
</g>
<defs>
<clipPath id="clip0">
<rect width="120" height="49" fill="white"/>
</clipPath>
</defs>
</svg>
