<svg width="255" height="204" viewBox="0 0 255 204" fill="none" xmlns="http://www.w3.org/2000/svg">
<path d="M0.5 153.58V150.97L0.480011 134.4L0 120.86L1.20001 116.44L8.13 103.36L13.13 94.06L16.11 87.86L23.64 73.18L30.74 58.82L35.12 50.57L38.29 44.46L42.38 36.05L47.65 32.89L65.39 32.37L73.74 32L82.05 32.81L83.28 32.95L96.57 33.47L108.33 34.4L108.82 34.43L119.4 34.95L125.03 35.5L129.92 35.91L144.69 36.47L154.43 37.78L161.04 38.4L172.27 39.65L173.24 39.85L183.07 40.37L195.62 40.89L201.99 41.39L204.72 41.99L209.84 68.17L211.84 77.31L213.32 85.03L214.89 90.98L215.2 93.91L215.25 115.42L212.94 119.26L192.66 129.96L184.71 133.92L175.51 138.53L168.83 142.2L160.9 146.2L148.96 152.05L135.92 158.48L118.06 167.39L117.84 167.5L109.93 169.54L100.39 170.38L97.92 170.47L85.87 171.06L76.58 170.95L70.14 169.36L63.16 167.98L58.45 166.74L51.02 165.04L36.54 161.41L29.19 159.66L19.38 157.42L18.67 157.21L11.8 155.53L9.38 155.16L0.5 153.58Z" fill="#A3ECBC"/>
<path d="M220.147 0L226.912 3.95444L229.284 5.94211L235.403 12.2684L241.812 17.6969L249.258 25.0504L254.24 32.5794L255 35.8281L253.884 43.2401L250.962 50.5644L250.354 51.529L244.36 57.2415L243.491 58.0223L235.743 65.284L230.627 70.2239L225.12 73.5186L213.872 77.8489L208.42 79.9075L204.021 81.0183L195.018 83.482L187.811 85.6283L183.165 85.8998L174.477 85.954L167.988 86L163.707 85.9415L147.879 82.722L147.002 82.2084L144.538 79.5902L141.714 76.3874L141 74.0406L141.886 65.9563L142.641 59.5465L143.732 57.5672L153.13 49.6248L160.412 43.3988L166.96 37.9118L170.93 33.6776L178.447 24.1568L183.698 16.6363L185.213 15.275L193.091 10.7985L196.818 8.71901L201.041 7.0654L207.412 4.49731L211.102 3.2571L218.829 0.597132L220.147 0Z" fill="#EA5B0C"/>
<path d="M230.321 183.64C230.435 185.957 229.735 188.096 228.919 190.198C227.026 195.071 223.745 198.791 219.296 201.479C217.506 202.559 215.543 203.17 213.43 203.258C211.794 203.328 210.161 203.474 208.52 203.544C207.982 203.566 207.433 203.471 206.895 203.397C202.845 202.852 200.663 199.908 198.587 196.858C198.114 196.162 197.836 195.335 197.437 194.584C196.668 193.149 195.994 191.644 195.068 190.322C193.83 188.561 193.431 186.565 192.929 184.551C192.494 182.794 191.78 181.11 191.267 179.37C190.421 176.514 189.612 173.647 188.84 170.773C187.719 166.606 186.877 162.352 185.482 158.284C184.398 155.113 183.153 152.011 182.846 148.657C182.571 145.695 182.534 142.715 182.263 139.753C181.974 136.549 181.612 133.345 181.128 130.167C180.89 128.61 180.129 127.981 178.646 127.966C176.05 127.937 174.538 126.359 173.391 124.37C172.736 123.235 172.392 121.91 171.974 120.647C171.78 120.057 171.579 119.9 170.938 120.097C168.386 120.881 165.794 121.533 163.256 122.36C162.184 122.712 161.169 123.312 160.217 123.935C158.581 124.997 156.969 126.033 154.875 125.754C154.608 125.718 154.227 125.853 154.04 126.044C152.967 127.15 151.569 127.442 150.159 127.845C148.962 128.189 147.783 128.779 146.743 129.478C143.521 131.646 140.042 133.136 136.223 133.865C133.785 134.33 131.862 135.882 129.757 137.039C128.329 137.827 127.007 138.823 125.308 139.002C123.946 139.148 121.54 137.274 121.482 135.941C121.475 135.747 121.658 135.534 121.786 135.348C122.053 134.956 122.346 134.579 122.617 134.187C123.13 133.444 122.957 133.023 122.189 132.444C121.138 131.653 120.167 130.657 119.428 129.57C117.593 126.882 115.7 124.217 114.756 121.027C114.518 120.218 114.071 119.471 113.727 118.691C113.141 117.366 112.46 116.095 112.295 114.594C112.193 113.664 111.786 112.84 110.874 112.188C109.344 111.09 108.872 109.365 108.945 107.516C108.996 106.249 109.256 104.979 108.674 103.745C108.568 103.522 108.601 103.049 108.762 102.91C109.622 102.16 109.783 101.145 109.867 100.124C109.937 99.2962 110.395 99.2742 110.999 99.417C111.826 99.6148 112.669 99.7868 113.478 100.05C114.195 100.285 114.364 100.01 114.272 99.3694C114.144 98.465 113.965 97.568 113.899 96.6599C113.84 95.869 113.628 95.4589 112.764 95.1038C111.409 94.5472 110.841 93.1265 110.398 91.7937C110.083 90.849 109.835 90.0179 108.765 89.5602C107.956 89.216 107.725 86.5467 108.381 85.5105C108.861 84.7526 109.439 83.9654 110.168 83.4784C112.119 82.1712 114.078 80.8933 116.334 80.0548C119.171 79.0003 121.844 77.5101 124.675 76.4445C128.098 75.1557 131.324 73.508 134.447 71.6333C137.051 70.0698 139.632 68.4661 142.254 66.9282C143.817 66.0128 145.392 65.0974 147.036 64.3358C152.817 61.6519 158.745 59.3122 164.823 57.4046C168.701 56.1889 172.718 55.4163 176.592 54.1897C180.63 52.9082 184.625 51.4399 188.539 49.8215C190.872 48.8585 192.926 47.2145 195.269 46.2845C199.319 44.6734 203.401 42.9891 207.89 43.0001C208.495 43.0037 209.099 43.1099 209.699 43.1831C212.233 43.4907 213.895 44.8015 214.774 47.2584C215.301 48.7304 216.231 50.0559 216.836 51.5058C217.7 53.5746 218.439 55.6946 219.216 57.7963C219.318 58.0783 219.296 58.4078 219.417 58.6788C219.618 59.1328 219.889 59.5575 220.131 59.9933C220.332 59.5099 220.545 59.0303 220.728 58.536C220.79 58.3712 220.772 58.1735 220.783 57.9904C220.816 57.4192 221.101 57.4155 221.478 57.6938C221.673 57.8366 221.841 58.0197 222.002 58.1991C222.76 59.0376 223.657 59.3818 224.788 59.0742C225.762 58.8106 226.656 58.9424 227.593 59.444C228.71 60.0372 229.944 60.4217 231.149 60.8391C232.02 61.1393 232.463 61.619 232.295 62.5966C232.24 62.9152 232.313 63.3326 232.485 63.5999C234.525 66.7561 235.645 70.2822 236.663 73.8522C236.78 74.2586 236.886 74.6907 237.099 75.0458C239.263 78.6195 240.226 82.6582 241.569 86.5504C241.862 87.3999 242.184 88.242 242.452 89.1025C242.675 89.8201 242.463 90.3035 241.782 90.7758C240.797 91.4569 240.002 92.4015 239.047 93.1302C238.49 93.5549 237.802 93.9467 237.128 94.0529C235.484 94.3165 234.202 95.1806 233.023 96.2315C231.826 97.297 230.592 98.2087 228.93 98.4064C226.649 98.6737 224.723 99.8637 222.72 100.878C220.234 102.138 217.678 103.258 215.151 104.441C214.221 104.876 213.31 105.352 212.361 105.741C210.069 106.678 207.744 107.531 205.467 108.501C204.244 109.021 203.12 109.765 201.897 110.288C201.084 110.632 200.264 111.013 199.279 110.852C198.799 110.775 198.228 111.108 197.73 111.332C196.869 111.716 196.877 111.939 197.422 112.672C198.286 113.822 199.066 115.033 199.901 116.205C200.879 117.571 200.677 118.966 199.941 120.31C199.539 121.042 199.432 121.58 200.036 122.265C200.377 122.65 200.421 123.283 200.677 123.763C201.388 125.095 202.003 126.465 203.112 127.571C205.108 129.566 205.961 132.316 207.543 134.579C208.978 136.637 210.007 138.888 211.149 141.093C211.644 142.048 212.456 142.839 213.05 143.755C213.767 144.864 214.522 145.974 215.056 147.178C215.873 149.016 216.678 150.803 218.081 152.319C218.831 153.132 219.197 154.296 219.765 155.285C220.42 156.431 221.112 157.562 221.775 158.705C222.262 159.543 222.731 160.396 223.214 161.242C225.063 164.486 226.645 167.844 227.751 171.429C228.677 174.431 229.567 177.441 230.024 180.557C230.164 181.575 230.222 182.611 230.321 183.64ZM129.233 121.507C130.032 121.284 131.357 121.057 132.562 120.548C137.582 118.428 142.576 116.238 147.563 114.034C150.441 112.763 153.297 111.434 156.138 110.087C159.265 108.607 162.326 106.985 165.494 105.601C168.108 104.459 170.839 103.577 173.512 102.57C175.387 101.863 177.251 101.123 179.129 100.42C182.201 99.2669 185.39 98.3625 188.323 96.9309C191.688 95.2868 195.222 94.3641 198.799 93.4487C201.029 92.8775 203.207 92.1123 205.408 91.4312C205.807 91.3067 206.203 91.1639 206.598 91.0248C209.45 90.0069 212.394 89.194 215.122 87.9162C218.004 86.565 220.673 84.7562 223.452 83.1781C223.998 82.8669 224.133 82.4971 223.84 81.9881C223.302 81.0434 222.826 80.0365 222.152 79.1944C220.603 77.2611 219.589 75.0825 218.886 72.7354C218.293 70.7582 217.956 68.6638 217.096 66.8147C215.51 63.4022 213.917 60.0079 212.669 56.4526C211.603 53.4135 210.472 50.4147 208.454 47.8296C207.971 47.2108 207.539 46.9289 206.781 47.1303C205.617 47.4415 204.46 47.804 203.273 47.9798C201.823 48.1995 200.688 48.8878 199.564 49.7776C198.48 50.6344 197.323 51.7365 196.06 51.9598C192.541 52.5823 189.305 53.8785 186.115 55.3761C182.446 57.1007 178.499 57.8476 174.574 58.6202C171.356 59.2536 168.218 60.0958 165.149 61.2638C163.165 62.0181 161.136 62.6625 159.101 63.2777C154.959 64.5299 150.943 66.0202 147.34 68.5063C145.849 69.5352 144.209 70.3591 142.587 71.1793C140.152 72.4095 137.666 73.541 135.209 74.7346C132.375 76.1114 129.581 77.5723 126.718 78.8758C122.954 80.5931 119.131 82.1932 115.631 84.4377C115.052 84.8075 114.562 84.9466 115.323 85.7156C115.891 86.2904 116.191 87.1509 116.55 87.9125C116.985 88.8389 117.575 93.7892 117.454 94.7888C117.407 95.1953 117.385 95.6383 117.487 96.0301C118.194 98.725 118.922 101.416 119.677 104.096C120.087 105.55 120.486 107.018 121.039 108.421C121.636 109.944 122.192 111.559 123.148 112.855C124.601 114.825 125.359 117.033 126.048 119.299C126.659 121.331 126.619 121.346 129.233 121.507ZM188.158 148.584C188.085 148.591 188.016 148.602 187.942 148.61C188.096 149.869 188.232 151.129 188.404 152.385C188.872 155.761 190.454 158.811 191.099 162.176C192.04 167.093 193.735 171.864 194.826 176.76C195.881 181.49 198.004 185.793 199.751 190.245C200.066 191.047 200.827 191.673 201.355 192.398C201.849 193.076 202.497 193.716 202.75 194.482C203.958 198.114 207.089 199.132 210.23 200.146C210.549 200.248 210.948 200.091 211.31 200.051C211.852 199.992 212.412 199.996 212.932 199.86C214.316 199.494 215.763 199.234 217.044 198.637C220.581 196.986 222.606 193.859 224.331 190.556C224.906 189.458 225.319 188.154 225.371 186.928C225.616 181.186 224.016 175.925 220.918 171.092C219.999 169.66 219.139 168.188 218.333 166.69C216.923 164.072 215.799 161.293 213.844 158.994C213.496 158.584 213.251 158.082 213.006 157.595C211.871 155.321 210.772 153.026 209.619 150.759C208.74 149.031 207.594 147.409 206.931 145.604C204.921 140.104 201.45 135.483 198.305 130.654C197.653 129.65 196.866 128.486 196.844 127.38C196.803 125.436 196.276 124.517 194.229 124.722C193.838 124.762 193.299 124.623 193.219 123.92C192.992 121.943 192.746 119.962 192.377 118.007C192.113 116.612 191.432 115.359 190.293 114.462C189.956 114.199 189.261 113.917 189.023 114.078C187.558 115.059 185.969 115.51 184.237 115.583C184.134 115.586 184.021 115.696 183.937 115.78C183.113 116.601 182.084 116.828 180.964 116.912C180.308 116.959 179.66 117.205 179.023 117.403C178.503 117.564 178.232 117.904 178.335 118.508C178.481 119.339 178.569 120.182 178.69 121.02C179.089 123.752 180.129 124.806 182.831 125.235C183.867 125.399 184.501 125.864 184.416 126.853C184.343 127.691 184.64 127.878 185.281 128.076C186.302 128.394 186.719 129.105 186.503 130.181C186.434 130.529 186.295 131.012 186.46 131.236C187.408 132.536 187.005 134.011 187.228 135.41C187.628 137.933 187.595 140.43 187.657 142.945C187.723 144.827 187.99 146.706 188.158 148.584ZM150.415 119.717C150.855 119.581 151.298 119.464 151.726 119.299C153.143 118.761 154.546 118.175 155.974 117.666C158.489 116.769 161.074 116.106 163.48 114.876C165.523 113.833 167.643 112.906 169.807 112.152C172.725 111.138 175.72 110.328 178.686 109.45C179.437 109.226 180.22 109.105 180.975 108.889C183.589 108.139 186.383 108.007 188.799 106.546C189.275 106.26 189.975 106.348 190.568 106.249C191.278 106.129 192.058 106.143 192.677 105.836C194.211 105.074 195.76 104.554 197.484 104.349C198.971 104.173 200.436 103.679 201.867 103.192C203.866 102.511 205.587 101.145 207.81 100.951C208.799 100.863 209.762 100.307 210.703 99.8857C212.914 98.8971 215.071 97.7803 217.308 96.8686C219.516 95.9679 221.629 94.9719 223.507 93.4707C224.777 92.4528 226.107 91.5044 227.721 91.0138C228.933 90.644 230.167 90.2229 231.255 89.5895C232.661 88.7693 233.939 87.7221 235.26 86.7591C236.249 86.0378 236.403 85.6643 235.689 84.6391C234.29 82.6289 233.324 80.4027 232.196 78.2533C230.475 74.969 228.629 71.7578 227.366 68.261C227.165 67.7008 226.909 67.5397 226.312 67.547C225.422 67.558 224.521 67.4445 223.639 67.2944C223.093 67.2028 222.932 67.3932 223.082 67.8399C223.39 68.7553 223.756 69.6524 224.096 70.5531C224.375 71.2818 224.829 71.9885 224.902 72.7354C225.162 75.3607 226.315 77.554 227.857 79.6154C228.545 80.5345 229.27 81.4645 229.735 82.5007C230.695 84.6354 229.761 86.1842 227.535 86.4918C227.106 86.5504 226.707 86.8653 226.312 87.0923C223.514 88.6668 220.819 90.4646 217.905 91.7681C214.54 93.2693 211.017 94.441 207.502 95.5614C204.668 96.4658 201.732 97.0553 198.857 97.8353C197.29 98.26 195.727 98.7287 194.211 99.2962C192.677 99.8711 191.22 100.64 189.696 101.248C187.558 102.097 185.394 102.885 183.237 103.686C179.876 104.935 176.533 106.238 173.139 107.399C170.107 108.432 166.878 108.933 164.205 110.889C164.066 110.991 163.857 110.995 163.692 111.064C161.133 112.163 158.555 113.232 156.017 114.382C153.974 115.308 152.004 116.396 149.95 117.3C146.117 118.988 142.254 120.599 138.398 122.232C135.286 123.55 132.346 125.264 128.827 125.535C126.63 125.703 125.176 125.399 124.155 123.444C123.261 121.73 122.727 119.834 121.874 118.098C120.702 115.715 119.38 113.4 118.099 111.068C118.033 110.947 117.67 110.852 117.549 110.922C116.649 111.427 116.341 112.419 116.733 113.371C116.894 113.763 117.077 114.155 117.161 114.568C117.901 118.197 119.662 121.383 121.46 124.546C122.141 125.747 122.892 126.919 123.693 128.043C124.136 128.658 124.839 129.083 125.283 129.698C126.191 130.961 126.322 131.049 127.589 130.284C128.051 130.002 128.486 129.658 128.871 129.277C129.614 128.545 130.434 128.01 131.474 127.776C132.715 127.497 133.942 127.139 135.161 126.761C136.432 126.366 137.732 126.007 138.933 125.451C140.185 124.868 141.331 124.063 142.532 123.371C143.319 122.917 144.399 122.686 144.864 122.016C146.234 120.013 148.237 119.728 150.415 119.717Z" fill="black"/>
</svg>
