<svg width="25" height="20" viewBox="0 0 25 20" fill="none" xmlns="http://www.w3.org/2000/svg">
<path fill-rule="evenodd" clip-rule="evenodd" d="M24.5 2.36765C23.6182 2.76923 22.6687 3.04081 21.6727 3.16216C22.6898 2.5381 23.4702 1.54858 23.8379 0.369812C22.8856 0.947638 21.8333 1.368 20.7092 1.59335C19.8133 0.612494 18.5328 0 17.1156 0C14.3982 0 12.1936 2.26074 12.1936 5.04875C12.1936 5.44456 12.2359 5.82882 12.3204 6.19863C8.22812 5.98772 4.60072 3.97977 2.17072 0.921631C1.7467 1.66992 1.50439 2.5381 1.50439 3.46262C1.50439 5.21344 2.37357 6.75912 3.69493 7.66486C2.88916 7.64031 2.12845 7.41062 1.46355 7.03503V7.09715C1.46355 9.54424 3.16103 11.5854 5.41495 12.0477C5.0022 12.1661 4.56691 12.2253 4.11754 12.2253C3.80058 12.2253 3.49067 12.195 3.19061 12.1358C3.81748 14.1408 5.6347 15.6013 7.79001 15.6403C6.1052 16.9953 3.98089 17.8028 1.67485 17.8028C1.2776 17.8028 0.884575 17.7797 0.5 17.7335C2.67926 19.1636 5.26844 20 8.04781 20C17.1057 20 22.0573 12.3077 22.0573 5.63525C22.0573 5.41567 22.0531 5.1961 22.0446 4.98086C23.0068 4.26869 23.8421 3.38029 24.5 2.36765Z" fill="white"/>
</svg>
