<svg width="25" height="18" viewBox="0 0 25 18" fill="none" xmlns="http://www.w3.org/2000/svg">
<path fill-rule="evenodd" clip-rule="evenodd" d="M10.022 12.135L10.0212 5.34387L16.5058 8.75113L10.022 12.135ZM24.26 4.16708C24.26 4.16708 24.0252 2.50161 23.306 1.76819C22.3932 0.805155 21.3702 0.800614 20.9015 0.74472C17.543 0.499996 12.5052 0.5 12.5052 0.5H12.4948C12.4948 0.5 7.457 0.499996 4.0985 0.74472C3.629 0.800614 2.60675 0.805155 1.69325 1.76819C0.974003 2.50161 0.739998 4.16708 0.739998 4.16708C0.739998 4.16708 0.5 6.12336 0.5 8.07889V9.91281C0.5 11.8691 0.739998 13.8246 0.739998 13.8246C0.739998 13.8246 0.974003 15.4901 1.69325 16.2235C2.60675 17.1865 3.806 17.1563 4.34 17.2568C6.26 17.4426 12.5 17.5 12.5 17.5C12.5 17.5 17.543 17.4925 20.9015 17.2477C21.3702 17.1911 22.3932 17.1865 23.306 16.2235C24.0252 15.4901 24.26 13.8246 24.26 13.8246C24.26 13.8246 24.5 11.8691 24.5 9.91281V8.07889C24.5 6.12336 24.26 4.16708 24.26 4.16708Z" fill="white"/>
</svg>
