<svg xmlns="http://www.w3.org/2000/svg" viewBox="0 0 41.8 41.8"><circle cx="20.9" cy="20.9" r="20.9" fill="#fff"/><path d="M13.89 9.72a2.35 2.35 0 11-2.37 2.34 2.36 2.36 0 012.37-2.34zM15.25 29.26H12.5a.65.65 0 01-.65-.65V16.86a.65.65 0 01.65-.65h2.75a.65.65 0 01.65.65v11.75a.65.65 0 01-.65.65zM31.11 20.34a4.46 4.46 0 00-4.46-4.46h-.71a4 4 0 00-3.25 1.7c-.08.11-.15.23-.22.35v-1.45a.27.27 0 00-.27-.27h-3.47a.27.27 0 00-.27.27V29a.27.27 0 00.27.27h3.51a.27.27 0 00.27-.27v-7.24a2.27 2.27 0 013.88-1.63 2.27 2.27 0 01.66 1.61V29a.27.27 0 00.27.27h3.52a.27.27 0 00.27-.27v-8.66z" fill="#e6324b"/></svg>